#!OML:ASF C:\Vicon Data\Big\jianyuan-12\jianyuan\Session 1\Capture.male.ASF
:FULLY-SPECIFIED
:DEGREES
251
root -6.358954 17.035240 -4.903263 6.455321 4.593232 8.405819
lowerback -9.514262 -2.798848 -10.442830 
upperback 2.032264 -2.396556 -1.335141 
thorax 7.937074 -1.634160 4.038382 
lowerneck -5.198344 -4.630915 -5.933266 
upperneck 6.946537 -6.330670 7.103094 
head 3.330227 -3.031983 2.817742 
rclavicle 0.000000 0.000000 
rhumerus -50.713414 -34.338226 -66.553554 
rradius 32.105653 
rwrist 40.673950 
rhand -17.912051 -4.112867 
rfingers 0.000000 
rthumb 8.355243 -33.927608 
lclavicle 0.000000 0.000000 
lhumerus -17.613805 14.217816 87.870564 
lradius 39.708330 
lwrist -31.957825 
lhand -8.472573 5.307984 
lfingers 0.000000 
lthumb 17.454113 34.544409 
rfemur -38.643757 2.981053 5.997587 
rtibia 24.572136 
rfoot -19.235036 -6.038686 
rtoes -16.181210 
lfemur 10.922762 -2.964905 -34.214918 
ltibia 0.000000 
lfoot -18.714992 4.742424 
ltoes -24.893356 
252
root -6.363292 17.025729 -4.834031 6.498991 4.662524 8.351878
lowerback -9.579994 -2.816590 -10.406635 
upperback 2.007739 -2.419053 -1.305609 
thorax 7.951130 -1.643481 4.044339 
lowerneck -5.160061 -4.612462 -5.871517 
upperneck 6.926943 -6.311761 7.098680 
head 3.314680 -3.022350 2.808542 
rclavicle 0.000000 0.000000 
rhumerus -50.782913 -34.406479 -66.434296 
rradius 32.066362 
rwrist 40.962738 
rhand -18.114984 -4.084549 
rfingers 0.000000 
rthumb 8.159378 -33.906954 
lclavicle 0.000000 0.000000 
lhumerus -17.610264 14.319482 87.915246 
lradius 39.738858 
lwrist -31.931981 
lhand -8.366274 5.351270 
lfingers 0.000000 
lthumb 17.556377 34.578598 
rfemur -38.642589 2.834978 6.181021 
rtibia 24.701876 
rfoot -19.113331 -6.017642 
rtoes -16.326201 
lfemur 11.130107 -2.964180 -34.127311 
ltibia 0.000000 
lfoot -18.640574 4.711595 
ltoes -25.059222 
253
root -6.366546 17.018094 -4.762825 6.505230 4.716960 8.283747
lowerback -9.632206 -2.813583 -10.337537 
upperback 1.996577 -2.417619 -1.298484 
thorax 7.965403 -1.639707 4.012341 
lowerneck -5.160782 -4.619394 -5.778922 
upperneck 6.778811 -6.305555 6.882612 
head 3.499571 -3.038437 2.929003 
rclavicle 0.000000 0.000000 
rhumerus -50.862684 -34.533294 -66.317939 
rradius 32.072213 
rwrist 41.127363 
rhand -18.073259 -4.032677 
rfingers 0.000000 
rthumb 8.199613 -33.853532 
lclavicle 0.000000 0.000000 
lhumerus -17.675383 14.200294 87.922499 
lradius 39.835058 
lwrist -31.702801 
lhand -8.386643 5.383510 
lfingers 0.000000 
lthumb 17.536793 34.612589 
rfemur -38.595071 2.789241 6.330219 
rtibia 24.871031 
rfoot -19.024460 -6.010483 
rtoes -16.248589 
lfemur 11.386683 -2.938686 -34.028564 
ltibia 0.000000 
lfoot -18.598843 4.676738 
ltoes -25.232589 
254
root -6.368492 17.009392 -4.692345 6.501549 4.782448 8.269462
lowerback -9.647702 -2.832265 -10.320545 
upperback 1.989351 -2.443889 -1.280923 
thorax 7.970406 -1.651870 4.016701 
lowerneck -5.155606 -4.626465 -5.776692 
upperneck 6.843292 -6.323228 6.949471 
head 3.412014 -3.038659 2.856534 
rclavicle 0.000000 0.000000 
rhumerus -50.830073 -34.548641 -66.306749 
rradius 32.105098 
rwrist 40.972921 
rhand -17.974927 -4.071856 
rfingers 0.000000 
rthumb 8.294511 -33.889021 
lclavicle 0.000000 0.000000 
lhumerus -17.765390 14.031936 87.947176 
lradius 40.007389 
lwrist -31.282435 
lhand -8.352781 5.506860 
lfingers 0.000000 
lthumb 17.569392 34.733012 
rfemur -38.529822 2.671585 6.451639 
rtibia 25.078877 
rfoot -18.886047 -6.003745 
rtoes -15.993086 
lfemur 11.653482 -2.926330 -33.982249 
ltibia 0.000000 
lfoot -18.573717 4.599865 
ltoes -25.135320 
